# xmcd
#
# Track frame offsets: 
#        150
#        22748
#        28330
#        74114
#        108084
#        130671
#        185650
#        225729
#        244046
#
# Disc length: 3344 seconds
#
# Revision: 0
# Processed by: cddbd v1.5.2PL0 Copyright (c) Steve Scherf et al.
# Submitted via: ExactAudioCopy v0.95b4
#
DISCID=750d0e09
DTITLE=Mick Pini - Wilbarston Live
DYEAR=1900
DGENRE=Blues
TTITLE0=01 Phonebooth
TTITLE1=02 Interlude
TTITLE2=03 Have You Ever Loved A Woman
TTITLE3=04Crazy
TTITLE4=05 Woke Up This Morning
TTITLE5=06 As The years Go Passing By
TTITLE6=07 Boom Boom - Medley
TTITLE7=08 Hey Joe
TTITLE8=09 Before You Accuse Me
EXTD=
EXTT0=
EXTT1=
EXTT2=
EXTT3=
EXTT4=
EXTT5=
EXTT6=
EXTT7=
EXTT8=
PLAYORDER=
